<?xml version="1.0" encoding="utf-8"?>
<!-- Generator: Adobe Illustrator 25.0.1, SVG Export Plug-In . SVG Version: 6.00 Build 0)  -->
<svg version="1.1" id="Layer_1" xmlns="http://www.w3.org/2000/svg" xmlns:xlink="http://www.w3.org/1999/xlink" x="0px" y="0px"
	 viewBox="0 0 640 140" style="enable-background:new 0 0 640 140;" xml:space="preserve">
<style type="text/css">
	.st0{fill:#FFFFFF;stroke:#FFFFFF;stroke-miterlimit:10;}
	.st1{fill:#FFFFFF;stroke:#FFFFFF;stroke-width:0.5;stroke-miterlimit:10;}
	.st2{fill:#981B1A;}
	.st3{fill:#3C3C3C;}
	.st4{fill:#0E0E0E;}
	.st5{fill:#E31420;}
	.st6{fill:#FFC139;}
	.st7{fill:#FFFFFF;}
</style>
<g transform="matrix( 1.7577667236328125, 0, 0, 1.7577667236328125, 251.75,-20.75) ">
	<g>
		<g id="Layer0_0_MEMBER_0_MEMBER_0_MEMBER_0_FILL">
			<path class="st0" d="M61.7,66.9c0.4-0.4,0.9-0.6,1.6-0.6c1.5,0,2.3,0.6,2.3,1.8v0.2h0.9v-0.3c0-0.8-0.3-1.4-0.9-1.8
				c-0.6-0.4-1.3-0.7-2.3-0.7c-1,0-1.8,0.3-2.4,0.8c-0.6,0.6-0.9,1.3-0.9,2.3v3c0,0.9,0.3,1.7,0.9,2.2c0.6,0.5,1.4,0.8,2.3,0.8
				c0.9,0,1.7-0.2,2.3-0.7c0.6-0.5,0.9-1.3,0.9-2.2v-1.8h-3.2v0.9h2.3v0.9c0,1.3-0.8,1.9-2.3,1.9s-2.3-0.7-2.2-2.1v-3.1
				C61.1,67.8,61.3,67.3,61.7,66.9z"/>
		</g>
	</g>
</g>
<g transform="matrix( 1.7577667236328125, 0, 0, 1.7577667236328125, 251.75,-20.75) ">
	<g>
		<g id="Layer0_0_MEMBER_0_MEMBER_0_MEMBER_1_FILL">
			<path class="st0" d="M76.3,66.4v-0.9h-5.4v8.9h5.4v-0.9h-4.4v-3.3h3.5v-0.8h-3.5v-3H76.3z"/>
		</g>
	</g>
</g>
<g transform="matrix( 1.7577667236328125, 0, 0, 1.7577667236328125, 251.75,-20.75) ">
	<g>
		<g id="Layer0_0_MEMBER_0_MEMBER_0_MEMBER_2_FILL">
			<path class="st0" d="M82,70.9l2.4,3.5h1.2l-2.5-3.6c1.5-0.3,2.2-1.1,2.2-2.6c0-0.9-0.3-1.6-1-2.1c-0.5-0.4-1.2-0.5-1.9-0.5h-3.1
				v8.9h1v-3.5H82 M82.1,66.4c1.4,0,2.2,0.6,2.2,1.8c0,1.2-0.7,1.9-2.2,1.9h-1.8v-3.7H82.1z"/>
		</g>
	</g>
</g>
<g transform="matrix( 1.7577667236328125, 0, 0, 1.7577667236328125, 251.75,-20.75) ">
	<g>
		<g id="Layer0_0_MEMBER_0_MEMBER_0_MEMBER_3_FILL">
			<path class="st0" d="M89.8,65.5h-1.5v8.9h1v-7.5h0.1l2.4,5.8h0.8l2.4-5.8h0.1v7.5h1v-8.9h-1.5l-2.4,5.8h-0.1L89.8,65.5z"/>
		</g>
	</g>
</g>
<g transform="matrix( 1.7577667236328125, 0, 0, 1.7577667236328125, 251.75,-20.75) ">
	<g>
		<g id="Layer0_0_MEMBER_0_MEMBER_0_MEMBER_4_FILL">
			<path class="st0" d="M102.9,65.5h-1l-3.2,8.9h1.1l0.8-2.5h3.5l0.9,2.5h1L102.9,65.5 M102.4,66.8l1.4,4.2h-2.9L102.4,66.8z"/>
		</g>
	</g>
</g>
<g transform="matrix( 1.7577667236328125, 0, 0, 1.7577667236328125, 251.75,-20.75) ">
	<g>
		<g id="Layer0_0_MEMBER_0_MEMBER_0_MEMBER_5_FILL">
			<path class="st0" d="M109.6,67.2L109.6,67.2l4.5,7.2h0.9v-8.9h-0.9v7l-4.4-7h-1.1v8.9h1V67.2z"/>
		</g>
	</g>
</g>
<g transform="matrix( 1.7577667236328125, 0, 0, 1.7577667236328125, 251.75,-20.75) ">
	<g>
		<g id="Layer0_0_MEMBER_0_MEMBER_0_MEMBER_6_FILL">
			<path class="st0" d="M125.5,74.4v-8h2.6v-0.9h-6.2v0.9h2.6v8H125.5z"/>
		</g>
	</g>
</g>
<g transform="matrix( 1.7577667236328125, 0, 0, 1.7577667236328125, 251.75,-20.75) ">
	<g>
		<g id="Layer0_0_MEMBER_0_MEMBER_0_MEMBER_7_FILL">
			<path class="st0" d="M136.1,73.5h-4.4v-3.3h3.6v-0.8h-3.6v-3h4.4v-0.9h-5.4v8.9h5.4V73.5z"/>
		</g>
	</g>
</g>
<g transform="matrix( 1.7577667236328125, 0, 0, 1.7577667236328125, 251.75,-20.75) ">
	<g>
		<g id="Layer0_0_MEMBER_0_MEMBER_0_MEMBER_8_FILL">
			<path class="st0" d="M142.2,66.2c1.5,0,2.2,0.6,2.2,1.8v0.2h1v-0.3c0-0.7-0.3-1.3-0.9-1.8c-0.6-0.5-1.3-0.7-2.2-0.7
				c-1,0-1.8,0.3-2.4,0.9c-0.6,0.6-1,1.3-1,2.2v3.1c0,1,0.3,1.7,1,2.2c0.6,0.5,1.4,0.8,2.4,0.8c0.9,0,1.7-0.2,2.2-0.7
				c0.6-0.5,0.9-1.1,0.9-1.8v-0.3h-1V72c0,1.1-0.7,1.7-2.1,1.7c-0.7,0-1.2-0.2-1.6-0.5c-0.4-0.4-0.7-0.9-0.7-1.6v-3.1
				c0-0.7,0.2-1.2,0.6-1.6C141,66.4,141.5,66.2,142.2,66.2z"/>
		</g>
	</g>
</g>
<g transform="matrix( 1.7577667236328125, 0, 0, 1.7577667236328125, 251.75,-20.75) ">
	<g>
		<g id="Layer0_0_MEMBER_0_MEMBER_0_MEMBER_9_FILL">
			<path class="st0" d="M154.7,65.5h-1.1v3.8h-4.3v-3.8h-1.1v8.9h1.1v-4.1h4.3v4.1h1.1V65.5z"/>
		</g>
	</g>
</g>
<g transform="matrix( 1.7577667236328125, 0, 0, 1.7577667236328125, 251.75,-20.75) ">
	<g>
		<g id="Layer0_0_MEMBER_0_MEMBER_0_MEMBER_10_FILL">
			<path class="st0" d="M163.3,72.5L163.3,72.5l-4.5-7h-1v8.9h1v-7.2l4.5,7.2h0.9v-8.9h-0.9V72.5z"/>
		</g>
	</g>
</g>
<g transform="matrix( 1.7577667236328125, 0, 0, 1.7577667236328125, 251.75,-20.75) ">
	<g>
		<g id="Layer0_0_MEMBER_0_MEMBER_0_MEMBER_11_FILL">
			<path class="st0" d="M167.3,71.6c0,0.9,0.3,1.7,0.9,2.2c0.6,0.5,1.4,0.8,2.3,0.8c1,0,1.8-0.3,2.3-0.8c0.7-0.6,1-1.4,1-2.3v-3
				c0-0.9-0.3-1.7-0.9-2.2c-0.6-0.5-1.4-0.8-2.3-0.8c-1,0-1.8,0.3-2.4,0.8c-0.6,0.6-0.9,1.4-0.9,2.3V71.6 M168.9,66.9
				c0.4-0.4,0.9-0.6,1.6-0.6c1.5,0,2.3,0.7,2.3,2.1v3.2c0,0.7-0.2,1.2-0.6,1.6c-0.4,0.4-0.9,0.5-1.6,0.5c-1.5,0-2.2-0.7-2.2-2.1v-3
				C168.3,67.8,168.5,67.3,168.9,66.9z"/>
		</g>
	</g>
</g>
<g transform="matrix( 1.7577667236328125, 0, 0, 1.7577667236328125, 251.75,-20.75) ">
	<g>
		<g id="Layer0_0_MEMBER_0_MEMBER_0_MEMBER_12_FILL">
			<path class="st0" d="M176.9,65.5v8.9h5.4v-0.9h-4.4v-8H176.9z"/>
		</g>
	</g>
</g>
<g transform="matrix( 1.7577667236328125, 0, 0, 1.7577667236328125, 251.75,-20.75) ">
	<g>
		<g id="Layer0_0_MEMBER_0_MEMBER_0_MEMBER_13_FILL">
			<path class="st0" d="M190.3,66.1c-0.6-0.5-1.4-0.8-2.4-0.8c-1,0-1.8,0.3-2.4,0.8c-0.6,0.6-1,1.4-1,2.3v3c0,0.9,0.3,1.7,1,2.2
				c0.6,0.5,1.4,0.8,2.3,0.8c1,0,1.8-0.3,2.4-0.8c0.7-0.6,1-1.4,1-2.3v-3C191.3,67.5,191,66.7,190.3,66.1 M187.9,66.3
				c0.7,0,1.3,0.2,1.7,0.5c0.4,0.4,0.6,0.9,0.6,1.6v3.2c0,0.7-0.2,1.2-0.6,1.6c-0.4,0.4-0.9,0.5-1.6,0.5s-1.2-0.2-1.6-0.5
				c-0.4-0.4-0.7-0.9-0.7-1.6v-3c0-0.7,0.2-1.3,0.6-1.7C186.7,66.5,187.3,66.3,187.9,66.3z"/>
		</g>
	</g>
</g>
<g transform="matrix( 1.7577667236328125, 0, 0, 1.7577667236328125, 251.75,-20.75) ">
	<g>
		<g id="Layer0_0_MEMBER_0_MEMBER_0_MEMBER_14_FILL">
			<path class="st0" d="M200.5,67.9c0-0.8-0.3-1.4-0.9-1.8c-0.6-0.4-1.3-0.7-2.2-0.7c-1,0-1.8,0.3-2.4,0.8c-0.6,0.6-0.9,1.4-0.9,2.3
				v3c0,0.9,0.3,1.7,0.9,2.2c0.6,0.5,1.4,0.8,2.4,0.8c0.9,0,1.7-0.2,2.3-0.7c0.6-0.5,1-1.3,1-2.2v-1.8h-3.2v0.9h2.2v0.9
				c0,1.3-0.7,1.9-2.2,1.9c-0.7,0-1.2-0.2-1.6-0.5c-0.4-0.4-0.6-0.9-0.6-1.6v-3.1c0-0.7,0.2-1.2,0.6-1.6c0.4-0.4,1-0.6,1.7-0.6
				c1.5,0,2.2,0.6,2.2,1.8v0.2h1V67.9z"/>
		</g>
	</g>
</g>
<g transform="matrix( 1.7577667236328125, 0, 0, 1.7577667236328125, 251.75,-20.75) ">
	<g>
		<g id="Layer0_0_MEMBER_0_MEMBER_0_MEMBER_15_FILL">
			<path class="st0" d="M202.9,65.5l2.9,5.1v3.7h1v-3.7l2.9-5.1h-1.1l-2.2,4.2l-2.2-4.2H202.9z"/>
		</g>
	</g>
</g>
<g transform="matrix( 1.7577972412109375, 0, 0, 1.7577972412109375, 251.75,-20.75) ">
	<g transform="matrix( 0.5688934326171875, 0, 0, 0.5688934326171875, -143.2,11.8) ">
		<path id="Layer0_0_MEMBER_0_MEMBER_1_1_STROKES" class="st1" d="M52.1,62.8v24.6"/>
	</g>
</g>
<g transform="matrix( 1.7577667236328125, 0, 0, 1.7577667236328125, 251.75,-20.75) ">
	<g>
		<g id="Layer0_0_MEMBER_0_MEMBER_2_MEMBER_0_FILL">
			<path class="st0" d="M60,83.1c0,0.4,0.1,0.6,0.3,0.8c0.2,0.2,0.5,0.3,0.8,0.3c0.5,0,0.8-0.2,1-0.6v0.5h0.5v-4.9h-0.5v1.8
				c-0.2-0.3-0.5-0.5-0.9-0.5s-0.7,0.1-0.9,0.3c-0.3,0.2-0.5,0.6-0.5,1V83.1 M60.5,83.1v-1.2c0-0.6,0.3-0.8,0.8-0.8
				c0.6,0,0.9,0.3,0.9,0.8V83c0,0.2-0.1,0.5-0.3,0.7c-0.2,0.2-0.4,0.2-0.6,0.2C60.8,83.9,60.5,83.6,60.5,83.1z"/>
		</g>
	</g>
</g>
<g transform="matrix( 1.7577667236328125, 0, 0, 1.7577667236328125, 251.75,-20.75) ">
	<g>
		<g id="Layer0_0_MEMBER_0_MEMBER_2_MEMBER_1_FILL">
			<path class="st0" d="M64.4,82.1v0.8c0,1,0.5,1.4,1.5,1.4c0.5,0,1-0.2,1.2-0.7l-0.4-0.2c-0.3,0.3-0.6,0.5-0.9,0.5
				c-0.7,0-1-0.3-1-1v-0.2h2.2V82c0-0.9-0.4-1.4-1.3-1.4C64.9,80.6,64.4,81.1,64.4,82.1 M64.9,82.2V82c0-0.6,0.3-0.8,0.9-0.8
				c0.5,0,0.8,0.3,0.8,0.9v0.2H64.9z"/>
		</g>
	</g>
</g>
<g transform="matrix( 1.7577667236328125, 0, 0, 1.7577667236328125, 251.75,-20.75) ">
	<g>
		<g id="Layer0_0_MEMBER_0_MEMBER_2_MEMBER_2_FILL">
			<path class="st0" d="M69.9,81.1c0.3,0,0.6,0.1,0.9,0.3l0.3-0.3c-0.2-0.3-0.6-0.4-1.2-0.4c-0.4,0-0.7,0.1-0.9,0.3
				c-0.2,0.2-0.3,0.5-0.3,0.8c0,0.5,0.3,0.8,0.9,0.9l0.5,0.1c0.5,0.1,0.7,0.3,0.7,0.6c0,0.4-0.3,0.6-0.8,0.6c-0.4,0-0.8-0.2-1.1-0.5
				l-0.3,0.4c0.3,0.4,0.7,0.5,1.4,0.5c0.4,0,0.7-0.1,0.9-0.3c0.3-0.2,0.5-0.5,0.5-0.9c0-0.5-0.3-0.8-0.9-0.9l-0.6-0.2
				c-0.4,0-0.6-0.2-0.6-0.5C69.2,81.3,69.4,81.1,69.9,81.1z"/>
		</g>
	</g>
</g>
<g transform="matrix( 1.7577667236328125, 0, 0, 1.7577667236328125, 251.75,-20.75) ">
	<g>
		<g id="Layer0_0_MEMBER_0_MEMBER_2_MEMBER_3_FILL">
			<path class="st0" d="M72.8,80.7v3.5h0.5v-3.5H72.8 M72.8,79.2V80h0.5v-0.8H72.8z"/>
		</g>
	</g>
</g>
<g transform="matrix( 1.7577667236328125, 0, 0, 1.7577667236328125, 251.75,-20.75) ">
	<g>
		<g id="Layer0_0_MEMBER_0_MEMBER_2_MEMBER_4_FILL">
			<path class="st0" d="M75.3,81c-0.3,0.2-0.4,0.5-0.4,0.9V83c0,0.8,0.4,1.2,1.2,1.2c0.5,0,0.8-0.2,1-0.5v0.7c0,0.6-0.3,0.8-0.8,0.8
				c-0.4,0-0.7-0.2-0.9-0.4L74.9,85c0.2,0.4,0.7,0.7,1.3,0.7c1,0,1.5-0.5,1.5-1.4v-3.5h-0.6v0.4c-0.2-0.3-0.5-0.5-0.9-0.5
				C75.9,80.6,75.6,80.8,75.3,81 M75.5,83v-1.1c0-0.6,0.3-0.8,0.8-0.8c0.6,0,0.9,0.3,0.9,0.8v1c0,0.2-0.1,0.4-0.3,0.7
				c-0.2,0.2-0.4,0.2-0.6,0.2C75.8,83.8,75.5,83.5,75.5,83z"/>
		</g>
	</g>
</g>
<g transform="matrix( 1.7577667236328125, 0, 0, 1.7577667236328125, 251.75,-20.75) ">
	<g>
		<g id="Layer0_0_MEMBER_0_MEMBER_2_MEMBER_5_FILL">
			<path class="st0" d="M81.6,82v2.2h0.5v-2.4c0-0.8-0.4-1.2-1.1-1.2c-0.5,0-0.8,0.2-1.1,0.7v-0.6h-0.6v3.5H80v-2.1
				c0-0.3,0.1-0.5,0.3-0.8c0.2-0.2,0.4-0.3,0.6-0.3C81.4,81.1,81.6,81.4,81.6,82z"/>
		</g>
	</g>
</g>
<g transform="matrix( 1.7577667236328125, 0, 0, 1.7577667236328125, 251.75,-20.75) ">
	<g>
		<g id="Layer0_0_MEMBER_0_MEMBER_2_MEMBER_6_FILL">
			<path class="st0" d="M83.7,82.1v0.8c0,1,0.5,1.4,1.6,1.4c0.5,0,0.9-0.2,1.2-0.7l-0.4-0.2c-0.2,0.3-0.5,0.5-0.8,0.5
				c-0.7,0-1-0.3-1-1v-0.2h2.2V82c0-0.9-0.5-1.4-1.4-1.4C84.2,80.6,83.7,81.1,83.7,82.1 M86,82.2h-1.8V82c0-0.6,0.3-0.8,0.9-0.8
				c0.6,0,0.9,0.3,0.9,0.9V82.2z"/>
		</g>
	</g>
</g>
<g transform="matrix( 1.7577667236328125, 0, 0, 1.7577667236328125, 251.75,-20.75) ">
	<g>
		<g id="Layer0_0_MEMBER_0_MEMBER_2_MEMBER_7_FILL">
			<path class="st0" d="M90.7,79.3h-0.5v1.8h-0.1c-0.2-0.3-0.5-0.5-0.9-0.5c-0.4,0-0.7,0.1-0.9,0.3c-0.3,0.2-0.5,0.6-0.5,1v1.2
				c0,0.8,0.4,1.2,1.2,1.2c0.4,0,0.8-0.2,1.1-0.6v0.5h0.5V79.3 M89.3,81.1c0.6,0,0.9,0.3,0.9,0.8V83c0,0.2-0.1,0.5-0.3,0.7
				c-0.2,0.2-0.4,0.2-0.6,0.2c-0.5,0-0.8-0.3-0.8-0.8v-1.2C88.5,81.4,88.8,81.1,89.3,81.1z"/>
		</g>
	</g>
</g>
<g transform="matrix( 1.7577667236328125, 0, 0, 1.7577667236328125, 251.75,-20.75) ">
	<g>
		<g id="Layer0_0_MEMBER_0_MEMBER_2_MEMBER_8_FILL">
			<path class="st0" d="M98.1,80.3c0-0.3-0.1-0.6-0.3-0.8c-0.2-0.2-0.5-0.4-0.9-0.4c-0.5,0-0.9,0.1-1.2,0.4
				c-0.2,0.2-0.3,0.5-0.3,0.8c0,0.3,0.2,0.6,0.6,1c-0.8,0.4-1.3,0.9-1.2,1.6c0,0.4,0.2,0.7,0.5,0.9c0.3,0.3,0.7,0.4,1.2,0.4
				c0.6,0,1.2-0.2,1.6-0.7l0.6,0.6h0.8l-1-1.1c0.2-0.3,0.4-0.7,0.5-1.1L98.3,82L98,82.8l-1.2-1.2C97.7,81.4,98.1,80.9,98.1,80.3
				 M96.8,79.6c0.5,0,0.8,0.2,0.8,0.7c0,0.5-0.3,0.8-1,1L96.3,81c-0.2-0.3-0.4-0.5-0.4-0.7C95.9,79.9,96.2,79.6,96.8,79.6
				 M96.2,81.7l1.4,1.6c-0.3,0.4-0.7,0.6-1.2,0.6c-0.7,0-1.1-0.3-1.1-1C95.3,82.3,95.6,81.9,96.2,81.7z"/>
		</g>
	</g>
</g>
<g transform="matrix( 1.7577667236328125, 0, 0, 1.7577667236328125, 251.75,-20.75) ">
	<g>
		<g id="Layer0_0_MEMBER_0_MEMBER_2_MEMBER_9_FILL">
			<path class="st0" d="M105.6,79.3h-0.6v1.8c-0.2-0.3-0.5-0.5-0.9-0.5c-0.4,0-0.7,0.1-0.9,0.3c-0.3,0.2-0.5,0.6-0.5,1v1.2
				c0,0.8,0.4,1.2,1.2,1.2c0.4,0,0.8-0.2,1.1-0.6v0.5h0.5V79.3 M104.2,81.1c0.6,0,0.9,0.3,0.9,0.8V83c0,0.2-0.1,0.5-0.3,0.7
				c-0.2,0.2-0.4,0.2-0.6,0.2c-0.5,0-0.8-0.3-0.8-0.8v-1.2C103.4,81.4,103.7,81.1,104.2,81.1z"/>
		</g>
	</g>
</g>
<g transform="matrix( 1.7577667236328125, 0, 0, 1.7577667236328125, 251.75,-20.75) ">
	<g>
		<g id="Layer0_0_MEMBER_0_MEMBER_2_MEMBER_10_FILL">
			<path class="st0" d="M110,82.6V82c0-0.9-0.5-1.4-1.4-1.4c-0.4,0-0.7,0.1-1,0.4c-0.3,0.3-0.4,0.6-0.4,1.1v0.8c0,1,0.5,1.4,1.6,1.4
				c0.5,0,0.9-0.2,1.2-0.7l-0.4-0.2c-0.2,0.3-0.5,0.5-0.8,0.5c-0.7,0-1-0.3-1-1v-0.2H110 M109.5,82v0.2h-1.8V82
				c0-0.6,0.3-0.8,0.9-0.8C109.3,81.1,109.5,81.4,109.5,82z"/>
		</g>
	</g>
</g>
<g transform="matrix( 1.7577667236328125, 0, 0, 1.7577667236328125, 251.75,-20.75) ">
	<g>
		<g id="Layer0_0_MEMBER_0_MEMBER_2_MEMBER_11_FILL">
			<path class="st0" d="M112.5,84.2h0.6l1.2-3.5h-0.5l-0.9,2.8h-0.1l-0.9-2.8h-0.6L112.5,84.2z"/>
		</g>
	</g>
</g>
<g transform="matrix( 1.7577667236328125, 0, 0, 1.7577667236328125, 251.75,-20.75) ">
	<g>
		<g id="Layer0_0_MEMBER_0_MEMBER_2_MEMBER_12_FILL">
			<path class="st0" d="M115.5,82.1v0.8c0,1,0.5,1.4,1.6,1.4c0.6,0,1-0.2,1.3-0.7l-0.4-0.2c-0.3,0.3-0.5,0.5-0.8,0.5
				c-0.7,0-1-0.3-1-1v-0.2h2.3V82c0-0.9-0.4-1.4-1.3-1.4c-0.4,0-0.8,0.1-1.1,0.4C115.6,81.3,115.5,81.7,115.5,82.1 M116,82.2V82
				c0-0.6,0.3-0.8,0.9-0.8c0.6,0,0.9,0.3,0.9,0.9v0.2H116z"/>
		</g>
	</g>
</g>
<g transform="matrix( 1.7577667236328125, 0, 0, 1.7577667236328125, 251.75,-20.75) ">
	<g>
		<g id="Layer0_0_MEMBER_0_MEMBER_2_MEMBER_13_FILL">
			<path class="st0" d="M119.8,83.4c0,0.6,0.3,0.9,0.8,0.9c0.2,0,0.4,0,0.6-0.1v-0.4l-0.4,0c-0.3,0-0.4-0.1-0.4-0.4v-4.1h-0.6V83.4z
				"/>
		</g>
	</g>
</g>
<g transform="matrix( 1.7577667236328125, 0, 0, 1.7577667236328125, 251.75,-20.75) ">
	<g>
		<g id="Layer0_0_MEMBER_0_MEMBER_2_MEMBER_14_FILL">
			<path class="st0" d="M125.3,82.9v-0.8c0-1-0.5-1.4-1.4-1.4c-0.4,0-0.7,0.1-1,0.4c-0.3,0.3-0.4,0.6-0.4,1v0.8
				c0,0.9,0.5,1.4,1.4,1.4c0.4,0,0.7-0.1,1-0.4C125.2,83.7,125.3,83.3,125.3,82.9 M124.7,82.1v0.8c0,0.7-0.3,1-0.8,1s-0.8-0.3-0.8-1
				v-0.8c0-0.6,0.3-0.9,0.8-0.9S124.7,81.5,124.7,82.1z"/>
		</g>
	</g>
</g>
<g transform="matrix( 1.7577667236328125, 0, 0, 1.7577667236328125, 251.75,-20.75) ">
	<g>
		<g id="Layer0_0_MEMBER_0_MEMBER_2_MEMBER_15_FILL">
			<path class="st0" d="M129.7,83v-1.2c0-0.8-0.4-1.2-1.2-1.2c-0.4,0-0.8,0.2-1,0.7h0v-0.6h-0.5v4.8h0.5v-1.7c0.2,0.3,0.6,0.4,1,0.4
				C129.3,84.3,129.7,83.9,129.7,83 M129.1,81.9V83c0,0.6-0.3,0.8-0.8,0.8c-0.2,0-0.4-0.1-0.6-0.2c-0.2-0.2-0.3-0.4-0.3-0.7v-0.9
				c0-0.3,0.1-0.5,0.3-0.7c0.2-0.2,0.4-0.2,0.6-0.2C128.9,81.1,129.1,81.4,129.1,81.9z"/>
		</g>
	</g>
</g>
<g transform="matrix( 1.7577667236328125, 0, 0, 1.7577667236328125, 251.75,-20.75) ">
	<g>
		<g id="Layer0_0_MEMBER_0_MEMBER_2_MEMBER_16_FILL">
			<path class="st0" d="M131.7,82.9v-0.2h2.2V82c0-0.9-0.4-1.4-1.3-1.4c-0.4,0-0.7,0.1-1,0.4c-0.3,0.3-0.5,0.6-0.5,1.1v0.8
				c0,1,0.5,1.4,1.6,1.4c0.5,0,1-0.2,1.2-0.7l-0.4-0.2c-0.2,0.3-0.5,0.5-0.8,0.5C132,83.9,131.7,83.6,131.7,82.9 M131.7,82.2V82
				c0-0.6,0.3-0.8,0.9-0.8c0.6,0,0.8,0.3,0.8,0.9v0.2H131.7z"/>
		</g>
	</g>
</g>
<g transform="matrix( 1.7577667236328125, 0, 0, 1.7577667236328125, 251.75,-20.75) ">
	<g>
		<g id="Layer0_0_MEMBER_0_MEMBER_2_MEMBER_17_FILL">
			<path class="st0" d="M138.1,79.3h-0.5v1.8h0c-0.2-0.3-0.5-0.5-0.9-0.5c-0.3,0-0.6,0.1-0.9,0.3c-0.3,0.3-0.4,0.6-0.4,1v1.2
				c0,0.4,0.1,0.6,0.3,0.8c0.2,0.2,0.5,0.3,0.9,0.3c0.4,0,0.7-0.2,1-0.6v0.5h0.5V79.3 M135.9,83.1v-1.2c0-0.6,0.3-0.8,0.9-0.8
				c0.6,0,0.9,0.3,0.9,0.8V83c0,0.2-0.1,0.5-0.3,0.7c-0.2,0.2-0.4,0.2-0.7,0.2C136.2,83.9,135.9,83.6,135.9,83.1z"/>
		</g>
	</g>
</g>
<g transform="matrix( 1.7577667236328125, 0, 0, 1.7577667236328125, 251.75,-20.75) ">
	<g>
		<g id="Layer0_0_MEMBER_0_MEMBER_2_MEMBER_18_FILL">
			<path class="st0" d="M142.2,80.7v3.5h0.6v-3.5H142.2 M142.2,79.2V80h0.6v-0.8H142.2z"/>
		</g>
	</g>
</g>
<g transform="matrix( 1.7577667236328125, 0, 0, 1.7577667236328125, 251.75,-20.75) ">
	<g>
		<g id="Layer0_0_MEMBER_0_MEMBER_2_MEMBER_19_FILL">
			<path class="st0" d="M146,81.1c0.5,0,0.7,0.3,0.7,0.8v2.2h0.6v-2.4c0-0.8-0.4-1.2-1.1-1.2c-0.5,0-0.8,0.2-1.1,0.7v-0.6h-0.6v3.5
				h0.6v-2.1c0-0.3,0.1-0.5,0.3-0.8C145.5,81.2,145.7,81.1,146,81.1z"/>
		</g>
	</g>
</g>
<g transform="matrix( 1.7577667236328125, 0, 0, 1.7577667236328125, 251.75,-20.75) ">
	<g>
		<g id="Layer0_0_MEMBER_0_MEMBER_2_MEMBER_20_FILL">
			<path class="st0" d="M154.8,82.7v-1H153v0.5h1.2v0.5c0,0.7-0.4,1.1-1.2,1.1c-0.8,0-1.2-0.4-1.2-1.2v-1.7c0-0.8,0.4-1.2,1.2-1.2
				c0.8,0,1.2,0.3,1.2,1v0.1h0.6v-0.2c0-0.9-0.6-1.4-1.8-1.4c-0.6,0-1,0.2-1.4,0.5c-0.3,0.3-0.5,0.8-0.5,1.3v1.7
				c0,0.5,0.2,0.9,0.6,1.2c0.3,0.3,0.8,0.4,1.3,0.4C154.2,84.3,154.8,83.8,154.8,82.7z"/>
		</g>
	</g>
</g>
<g transform="matrix( 1.7577667236328125, 0, 0, 1.7577667236328125, 251.75,-20.75) ">
	<g>
		<g id="Layer0_0_MEMBER_0_MEMBER_2_MEMBER_21_FILL">
			<path class="st0" d="M156.3,82.1v0.8c0,1,0.5,1.4,1.6,1.4c0.5,0,1-0.2,1.2-0.7l-0.4-0.2c-0.3,0.3-0.6,0.5-0.9,0.5
				c-0.7,0-1.1-0.3-1.1-1v-0.2h2.3V82c0-0.9-0.4-1.4-1.3-1.4c-0.4,0-0.8,0.1-1.1,0.4C156.5,81.3,156.3,81.7,156.3,82.1 M156.9,82.2
				V82c0-0.6,0.3-0.8,1-0.8c0.5,0,0.8,0.3,0.8,0.9v0.2H156.9z"/>
		</g>
	</g>
</g>
<g transform="matrix( 1.7577667236328125, 0, 0, 1.7577667236328125, 251.75,-20.75) ">
	<g>
		<g id="Layer0_0_MEMBER_0_MEMBER_2_MEMBER_22_FILL">
			<path class="st0" d="M162.7,80.7l-0.3-0.1c-0.5,0-0.9,0.2-1.2,0.7v-0.7h-0.5v3.5h0.5v-1.9c0-0.5,0.2-0.9,0.7-1.1l0.4-0.1l0.4,0.1
				V80.7z"/>
		</g>
	</g>
</g>
<g transform="matrix( 1.7577667236328125, 0, 0, 1.7577667236328125, 251.75,-20.75) ">
	<g>
		<g id="Layer0_0_MEMBER_0_MEMBER_2_MEMBER_23_FILL">
			<path class="st0" d="M164.7,82.2c0-0.3,0.1-0.5,0.3-0.8c0.2-0.2,0.4-0.3,0.6-0.3c0.4,0,0.7,0.3,0.7,0.8v2.2h0.6v-2.1
				c0-0.3,0.1-0.5,0.3-0.8c0.2-0.2,0.4-0.3,0.6-0.3c0.5,0,0.7,0.3,0.7,0.8v2.2h0.6v-2.4c0-0.8-0.4-1.2-1.1-1.2
				c-0.4,0-0.8,0.2-1.1,0.7h-0.1c-0.2-0.4-0.5-0.7-0.9-0.7c-0.5,0-0.8,0.2-1.1,0.7v-0.6h-0.6v3.5h0.6V82.2z"/>
		</g>
	</g>
</g>
<g transform="matrix( 1.7577667236328125, 0, 0, 1.7577667236328125, 251.75,-20.75) ">
	<g>
		<g id="Layer0_0_MEMBER_0_MEMBER_2_MEMBER_24_FILL">
			<path class="st0" d="M172.7,83.8v0.4h0.6l-0.1-2.6c0-0.7-0.4-1-1.2-1c-0.9,0-1.3,0.3-1.3,1v0h0.5v-0.1c0-0.3,0.3-0.5,0.8-0.5
				c0.5,0,0.8,0.2,0.8,0.7v0.4h-0.9c-0.9,0-1.4,0.4-1.4,1.1c0,0.7,0.4,1,1.2,1C172.1,84.3,172.5,84.2,172.7,83.8L172.7,83.8
				 M172.7,82.6V83c0,0.6-0.3,0.8-1,0.8c-0.5,0-0.7-0.2-0.7-0.6c0-0.4,0.3-0.7,0.8-0.7H172.7z"/>
		</g>
	</g>
</g>
<g transform="matrix( 1.7577667236328125, 0, 0, 1.7577667236328125, 251.75,-20.75) ">
	<g>
		<g id="Layer0_0_MEMBER_0_MEMBER_2_MEMBER_25_FILL">
			<path class="st0" d="M176.6,80.6c-0.4,0-0.8,0.2-1.1,0.7h-0.1v-0.6H175v3.5h0.6v-2.1c0-0.3,0.1-0.5,0.3-0.8
				c0.2-0.2,0.4-0.3,0.6-0.3c0.5,0,0.8,0.3,0.8,0.8v2.2h0.5v-2.4C177.7,81,177.3,80.6,176.6,80.6z"/>
		</g>
	</g>
</g>
<g transform="matrix( 1.7577667236328125, 0, 0, 1.7577667236328125, 251.75,-20.75) ">
	<g>
		<g id="Layer0_0_MEMBER_0_MEMBER_2_MEMBER_26_FILL">
			<path class="st0" d="M181.6,80.7l-1,2.8l-0.9-2.8h-0.6l1.3,3.4l-0.2,0.6c-0.1,0.3-0.3,0.4-0.5,0.4l-0.5-0.1v0.5l0.5,0.1
				c0.5,0,0.8-0.3,1-0.8l1.5-4.1H181.6z"/>
		</g>
	</g>
</g>
<g transform="matrix( 1.75775146484375, 0, 0, 1.75775146484375, 251.75,-20.75) ">
	<g>
		<g id="Layer0_0_MEMBER_0_MEMBER_3_MEMBER_0_MEMBER_0_FILL">
			<path class="st2" d="M21.4,78.8l6.3,0.9l14.6-3.1l-6.6-0.9L21.4,78.8z"/>
		</g>
	</g>
</g>
<g transform="matrix( 1.75775146484375, 0, 0, 1.75775146484375, 251.75,-20.75) ">
	<g>
		<g id="Layer0_0_MEMBER_0_MEMBER_3_MEMBER_1_MEMBER_0_FILL">
			<path class="st3" d="M35.5,68.6l-14.2,3l6.6,1l14.3-3L35.5,68.6z"/>
		</g>
	</g>
</g>
<g transform="matrix( 1.75775146484375, 0, 0, 1.75775146484375, 251.75,-20.75) ">
	<g>
		<g id="Layer0_0_MEMBER_0_MEMBER_3_MEMBER_2_MEMBER_0_FILL">
			<path class="st4" d="M38.8,63l-17.5,3.7v4.9L38.8,68V63z"/>
		</g>
	</g>
</g>
<g transform="matrix( 1.75775146484375, 0, 0, 1.75775146484375, 251.75,-20.75) ">
	<g>
		<g id="Layer0_0_MEMBER_0_MEMBER_3_MEMBER_3_MEMBER_0_FILL">
			<path class="st5" d="M21.4,73.9l0,5l20.8-4.4v-4.9L21.4,73.9z"/>
		</g>
	</g>
</g>
<g transform="matrix( 1.75775146484375, 0, 0, 1.75775146484375, 251.75,-20.75) ">
	<g>
		<g id="Layer0_0_MEMBER_0_MEMBER_3_MEMBER_4_MEMBER_0_FILL">
			<path class="st6" d="M21.4,81.7l10.5,5.8l10.5-5.8v-5l-20.9,4.4V81.7z"/>
		</g>
	</g>
</g>
<g transform="matrix( 3.209075927734375, 0, 0, 3.209075927734375, -49.8,-54.9) ">
	<g>
		<g id="Layer0_0_MEMBER_1_MEMBER_0_MEMBER_0_FILL">
			<path class="st7" d="M142.1,24c-0.1-0.9-0.2-1.5-0.2-1.8c-0.4-1.4-1.6-2.4-3.6-2.8c-0.5-0.1-3.2-0.2-8-0.2
				c-5.5,0-8.4,0.1-8.7,0.3c0,0.1-0.2,0.1-0.4,0.1s-0.6,0.1-1,0.5c-0.5,0.3-0.7,0.5-0.7,0.6c0,0.1,0,0.1,0,0.2c-0.4,0-0.5,0-0.4,0.1
				c0.1,0.1,0,0.2-0.2,0.5c-0.3,0.3-0.5,0.7-0.5,1.2c-0.1,0.5-0.2,1.4-0.2,2.7c0,1.1,0,1.9,0,2.1c0,0.3,0.1,0.7,0.3,1.1
				c0.2,0.5,0.5,0.9,0.9,1.2c0.3,0.3,0.8,0.5,1.3,0.7c0.5,0.2,1,0.3,1.3,0.3l0.8,0.1c0.2,0.1,1.6,0.2,4.3,0.2c4.1,0,6.6,0.1,7.6,0.2
				c0.9,0.1,1.6,0.3,1.9,0.6c0.3,0.2,0.4,0.6,0.4,1.1c0,0.5-0.1,0.8-0.2,1c-0.1,0.2-0.4,0.4-0.8,0.6c-0.3,0.2-0.7,0.3-1.2,0.3
				c-0.4,0-1.7,0.1-3.8,0.1c-2.4,0-4.1,0-4.9-0.1c-0.8-0.1-1.4-0.3-1.8-0.6c-0.3-0.2-0.4-0.4-0.4-0.6l-0.2-0.7l-0.2-0.4h-5.5
				l0.1,1.5c0.1,1.6,0.4,2.6,0.8,3c0.1,0.1,0.1,0.1,0.1,0.1c0.5,0.4,0.8,0.7,1.1,0.9c0.7,0.4,1.6,0.6,2.9,0.8
				c0.7,0.1,2.9,0.1,6.5,0.1c3.6,0,6,0,7.1-0.1c1.5-0.1,2.5-0.3,3.2-0.5c0.7-0.2,1.4-0.6,1.9-1.1c0.4-0.4,0.6-0.7,0.8-1.1
				s0.2-1,0.3-1.8c0.4-3.6-0.3-5.9-2-6.7c-0.9-0.4-1.8-0.7-2.8-0.8c-1-0.1-3.3-0.2-6.9-0.2c-2.8,0-4.5-0.1-5.2-0.2
				c-0.6-0.1-1.2-0.2-1.6-0.5c-0.2-0.1-0.3-0.3-0.4-0.6l-0.2-0.5c-0.1-0.1-0.1-0.2,0.1-0.5l0.3-0.7c0.1-0.1,0.3-0.3,0.6-0.4
				c0.3-0.2,2.1-0.2,5.4-0.2c3.3,0,5,0,5.2,0.2c0.2,0.1,0.2,0.1,0.1,0c-0.3-0.3-0.2-0.3,0.2,0.1c0.2,0.2,0.3,0.3,0.2,0.4L136,24
				c0.1,0,0.2,0.2,0.4,0.6l0.1,0.6h5.7L142.1,24 M179.7,19.5l-9.3,0.1l-2.2,4.1c-0.1,0.4-0.2,0.6-0.3,0.6c-0.1,0-0.1,0-0.1,0.1
				c0,0-0.1,0.2-0.3,0.5l-0.6,1.1c-0.1,0.1-0.4,0.6-0.8,1.3c-0.1,0.3-0.5,1-1.1,2.1l-1,1.9c-0.3,0.7-0.6,0.9-0.9,0.5l-1.3-2.4
				c-0.1-0.3-0.1-0.5-0.2-0.5l-0.2-0.3c-0.1-0.3-0.2-0.5-0.2-0.6l-0.7-1c-0.4-0.9-1-2-1.7-3.2l-1.1-2c-0.7-1.3-1.1-2-1.2-2.1
				c-0.1-0.2-0.3-0.3-0.6-0.3c-5.7,0-8.6,0-8.6,0.1v19.6h5.6v-7.1c0-4.7,0.1-7.1,0.1-7.2c0.1-0.2,0.4,0.1,0.9,1.1l1.2,2
				c0.4,0.6,0.6,1,0.7,1.2c0.1,0.3,0.4,0.8,0.9,1.6l1.8,3.2c0.9,1.8,1.5,2.7,1.6,2.7v0.4c0.1,0,0.3,0.2,0.5,0.8l0.5,0.9
				c0.1,0.1,0.1,0.2,0.1,0.2c0,0.1,0.7,0.2,2.2,0.2c1,0,1.6,0,1.8,0c0.3,0,0.4-0.1,0.4-0.2c-0.1-0.1-0.1-0.2,0.1-0.2
				c0.1,0,0.6-0.7,1.3-2.1l2.1-3.8c0.4-0.8,0.7-1.3,0.9-1.6l3.2-5.7c0.1-0.2,0.2-0.4,0.4-0.6c0.2-0.2,0.3-0.3,0.4-0.3
				c0.1,0,0.2,2.4,0.2,7.1l0.1,7.2h5.5L179.7,19.5 M203.2,19.5l-0.1,7l-6.3,0c-4.1,0.1-6.3,0.1-6.6,0l-0.4-0.1v-6.9l-0.3,0
				c-0.3-0.1-0.6-0.1-0.8-0.1l-4.7,0.1v19.7h5.8v-3.7c0-2.5,0-3.8,0.1-3.9c0-0.1,0.4-0.1,1.2-0.1c0.6,0,2.4-0.1,5.4-0.1
				c4.4,0,6.6,0,6.6,0.1v7.7h5.9V19.5H203.2z"/>
		</g>
	</g>
</g>
<g transform="matrix( 3.209075927734375, 0, 0, 3.209075927734375, -49.8,-54.9) ">
	<g>
		<g id="Layer0_0_MEMBER_1_MEMBER_1_MEMBER_0_FILL">
			<path class="st7" d="M44.8,24.4c-0.4-2.5-1.8-4.1-4.1-4.6c-0.7-0.2-4-0.2-10.2-0.2h-9.1v34.7h6.1v-20l6.6,0
				c3.3,0,5.2-0.1,5.8-0.1c0.6,0,1.1-0.1,1.5-0.2c1.5-0.6,2.6-1.8,3.1-3.4c0.2-0.6,0.3-1.5,0.4-2.9C45,26.2,44.9,25.1,44.8,24.4
				 M36.8,24.5c0.5,0,0.8,0.1,1,0.2c0.6,0.4,0.9,1.1,0.9,2.1c0,1.2-0.3,1.9-1,2.2c-0.2,0.1-0.6,0.2-1.2,0.2c-0.5,0-1.9,0-4.1,0h-4.8
				v-4.9l5,0C34.9,24.4,36.4,24.4,36.8,24.5 M69.3,19.9l-0.8-0.3l-20.5,0v19.6h6l0.1-5.1h5.2c2.5,0,4,0,4.5,0c0.5,0,0.9,0.1,1.1,0.2
				c0.4,0.2,0.6,0.5,0.8,0.9c0.1,0.3,0.2,1,0.2,2l0.1,1.9h6.1l-0.1-2.5c0-1.6-0.1-2.6-0.3-3.1c-0.3-0.9-1.1-1.6-2.4-2
				c-0.3-0.1-0.2-0.2,0.2-0.3c1-0.4,1.6-0.9,2-1.5c0.4-0.6,0.6-1.6,0.6-2.9C72.4,23,71.4,20.7,69.3,19.9 M64.3,24.5
				c0.5,0,0.9,0.1,1.1,0.2c0.6,0.3,0.9,1,0.9,2c0,1-0.3,1.7-0.9,2c-0.2,0.1-0.6,0.2-1.1,0.2c-0.5,0-2.1,0-4.8,0l-5.5,0.1l0.1-4.7
				h5.4C62.2,24.4,63.8,24.4,64.3,24.5 M106.4,29.8v4.8h7.7v-4.8H106.4 M97.8,19.5c-0.6-0.1-3.5-0.2-8.7-0.2c-5.2,0-8,0.1-8.6,0.2
				c-1.4,0.3-2.4,0.9-3.2,1.6c-0.7,0.7-1.2,1.8-1.5,3.1c-0.1,0.8-0.2,2.6-0.1,5.5c0,3,0.1,4.8,0.3,5.4c0.5,1.3,1.2,2.3,2.3,2.9
				c1.1,0.6,2.6,1,4.5,1.2c0.8,0.1,3,0.1,6.7,0c3.5,0,5.7,0,6.4-0.1c1.7-0.1,3-0.5,4-1c0.9-0.5,1.6-1.2,2.1-2.2
				c0.3-0.7,0.5-1.4,0.6-2.1c0.1-0.7,0.1-2.3,0.1-4.8c0-3.1-0.1-4.8-0.2-5.3c-0.3-1.2-0.9-2.2-1.6-2.9
				C100.2,20.3,99.1,19.8,97.8,19.5 M84.2,24.5c0.3-0.1,1.9-0.1,5-0.1c2.6,0,4.2,0,4.9,0.1c0.6,0.1,1.2,0.3,1.5,0.7
				c0.4,0.4,0.6,0.8,0.7,1.3c0.1,0.5,0.1,1.5,0.1,2.9c0,1.4,0,2.4-0.1,3c-0.3,0.9-0.9,1.5-1.9,1.6c-0.5,0.1-2.3,0.2-5.3,0.2
				c-3,0-4.8-0.1-5.2-0.2c-0.8-0.2-1.3-0.6-1.6-1.2c-0.1-0.3-0.2-0.6-0.2-1c0-0.3,0-1.1,0-2.4c0-1.3,0-2.2,0-2.5
				c0-0.3,0.1-0.7,0.2-1C82.8,25.1,83.4,24.7,84.2,24.5z"/>
		</g>
	</g>
</g>
</svg>
